# xmcd
#
# Track frame offsets:
# 150
# 11400
# 25794
# 38717
# 48227
# 63310
# 73022
# 86777
# 101137
# 115832
# 128720
# 143835
# 157425
#
# Disc length: 2299 seconds
#
#
# Revision: 2
# Processed by: cddbd v1.5.1PL0 Copyright (c) Steve Scherf et al.
# Submitted via: FreeRIP 2.942 
#
DISCID=b108f90d
DTITLE=Beth Carvalho - Beth Carvalho - Na Fonte
DYEAR=1981
DGENRE=Samba
TTITLE0=Virada
TTITLE1=Escasseia
TTITLE2=Grande Erro
TTITLE3=Salve a Magueira
TTITLE4=Morrendo de Saudade
TTITLE5=Motivação
TTITLE6=Gorjear da Passarada
TTITLE7=Pedaço de Ilusão
TTITLE8=É, Pois É
TTITLE9=Dança da Solidão
TTITLE10=Tendência
TTITLE11=Deus me Fez Assim
TTITLE12=Alpendre da Saudade
EXTD=
EXTT0=
EXTT1=
EXTT2=
EXTT3=
EXTT4=
EXTT5=
EXTT6=
EXTT7=
EXTT8=
EXTT9=
EXTT10=
EXTT11=
EXTT12=
PLAYORDER=
